# xmcd
# Track frame offsets:
# 150
# 13546
# 30235
# 55084
# 70862
# 84330
# 104132
# 123738
# 139702
# 154543
# 171869
#
# Disc length: 2528 seconds
# Revision: 0
# Processed by: cddbd v1.5.1PL2 Copyright (c) Steve Scherf et al.
# Submitted via: VisiTrax 2.9.10.228 - For more info visit www.synapsa.com
#
DISCID=8809de0b
DTITLE=Barbara Fairchild - He Kept Loving me
DYEAR=2005
DGENRE=
TTITLE0=All That Remains to Be Seen
TTITLE1=That`s How The Blood Of Jesus Saves
TTITLE2=The Other Side of That Hill
TTITLE3=It´s Good And It`s God
TTITLE4=High Price For Low Living
TTITLE5=A Better Way
TTITLE6=Hold Him In Heaven
TTITLE7=I Know Something About God`s Grace
TTITLE8=He Kept ON Loving Me
TTITLE9=Hidden Heroes
TTITLE10=Boulevard in Heaven
EXTD=
EXTT0=
EXTT1=
EXTT2=
EXTT3=
EXTT4=
EXTT5=
EXTT6=
EXTT7=
EXTT8=
EXTT9=
EXTT10=
PLAYORDER=
